<?xml version="1.0" encoding="utf-8"?>
<!-- Generator: Adobe Illustrator 22.0.0, SVG Export Plug-In . SVG Version: 6.00 Build 0)  -->
<svg version="1.1" id="Layer_1" xmlns="http://www.w3.org/2000/svg" xmlns:xlink="http://www.w3.org/1999/xlink" x="0px" y="0px"
	 viewBox="0 0 1200 301" style="enable-background:new 0 0 1200 301;" xml:space="preserve">
<style type="text/css">
	.st0{fill:#FFFFFF;}
	.st1{fill:none;}
</style>
<title>logo-w-fixed</title>
<path class="st0" d="M723.5,130.1V93.7h20.8c1.5-0.1,2.6-1.3,2.5-2.8c-0.1-1.3-1.1-2.4-2.5-2.5h-20.8V64.9c0.3-2.2-1.2-4.2-3.4-4.6
	c-2.2-0.3-4.2,1.2-4.6,3.4c-0.1,0.4-0.1,0.8,0,1.2v61.3h-21.3V83.5c0-2.9-2.3-5.3-5.3-5.3c-2.9,0-5.3,2.3-5.3,5.3c0,0,0,0,0,0V105
	H645V86.2h20c1.5,0,2.7-1.2,2.7-2.6c0,0,0,0,0,0V69.2c0-1.5-1.2-2.6-2.6-2.6s-2.6,1.2-2.6,2.6v11.7H645v-7.8
	c0.3-2.2-1.2-4.2-3.4-4.6c-2.2-0.3-4.2,1.2-4.6,3.4c-0.1,0.4-0.1,0.8,0,1.2V109c0,2.2,1.8,4,4,4h42.8v30.3h-28.4v-18.2
	c0.1-1.5-1-2.7-2.5-2.8s-2.7,1-2.8,2.5c0,0.1,0,0.2,0,0.3v20.8c0,1.5,1.2,2.6,2.6,2.6h31L684,197h10l0.3-62.9h25.2
	C721.7,134.1,723.5,132.3,723.5,130.1z"/>
<path class="st0" d="M658.6,120.9h9c1.2,0,2.1,0.9,2.1,2.1v9c0,1.2-0.9,2.1-2.1,2.1h-9c-1.2,0-2.1-0.9-2.1-2.1v-9
	C656.5,121.9,657.5,120.9,658.6,120.9z"/>
<path class="st0" d="M674.5,130.1h3.8c1.2,0,2.1,0.9,2.1,2.1v3.8c0,1.2-0.9,2.1-2.1,2.1h-3.8c-1.2,0-2.1-0.9-2.1-2.1v-3.8
	C672.4,131.1,673.3,130.1,674.5,130.1z"/>
<path class="st0" d="M636.2,120.9h10.4c1.2,0,2.1,0.9,2.1,2.1v10.4c0,1.2-0.9,2.1-2.1,2.1h-10.4c-1.2,0-2.1-0.9-2.1-2.1V123
	C634,121.9,635,120.9,636.2,120.9z"/>
<path class="st0" d="M641.8,137.4h4.8c1.2,0,2.1,0.9,2.1,2.1v4.8c0,1.2-0.9,2.1-2.1,2.1h-4.8c-1.2,0-2.1-0.9-2.1-2.1v-4.8
	C639.7,138.4,640.6,137.4,641.8,137.4z"/>
<path class="st0" d="M699.2,138.1H710c1.2,0,2.1,0.9,2.1,2.1V151c0,1.2-0.9,2.1-2.1,2.1h-10.7c-1.2,0-2.1-0.9-2.1-2.1v-10.7
	C697.1,139.1,698.1,138.1,699.2,138.1z"/>
<path class="st0" d="M729.1,122.2h5.6c1.2,0,2.1,0.9,2.1,2.1v5.6c0,1.2-0.9,2.1-2.1,2.1h-5.6c-1.2,0-2.1-0.9-2.1-2.1v-5.6
	C727,123.2,728,122.2,729.1,122.2z"/>
<path class="st0" d="M717.7,136.4h6c1.2,0,2.1,0.9,2.1,2.1v6c0,1.2-0.9,2.1-2.1,2.1h-6c-1.2,0-2.1-0.9-2.1-2.1v-6
	C715.6,137.3,716.5,136.4,717.7,136.4z"/>
<path class="st0" d="M730.7,134.1h11.5c1.2,0,2.1,0.9,2.1,2.1v11.5c0,1.2-0.9,2.1-2.1,2.1h-11.5c-1.2,0-2.1-0.9-2.1-2.1v-11.5
	C728.6,135.1,729.5,134.1,730.7,134.1z"/>
<path class="st0" d="M729.1,96.8h12c1.2,0,2.1,0.9,2.1,2.1v11.9c0,1.2-0.9,2.1-2.1,2.1h-12c-1.2,0-2.1-0.9-2.1-2.1V98.9
	C727,97.8,728,96.8,729.1,96.8z"/>
<path class="st0" d="M747.2,95.4h5.3c1.2,0,2.1,0.9,2.1,2.1v5.3c0,1.2-0.9,2.1-2.1,2.1h-5.3c-1.2,0-2.1-0.9-2.1-2.1v-5.3
	C745.1,96.4,746.1,95.4,747.2,95.4z"/>
<path class="st0" d="M752.2,82.9h4c1.2,0,2.1,0.9,2.1,2.1v4c0,1.2-0.9,2.1-2.1,2.1h-4c-1.2,0-2.1-0.9-2.1-2.1v-4
	C750.1,83.9,751,82.9,752.2,82.9z"/>
<path class="st0" d="M660.2,135.5h2.7c1.2,0,2.1,0.9,2.1,2.1v2.7c0,1.2-0.9,2.1-2.1,2.1h-2.7c-1.2,0-2.1-0.9-2.1-2.1v-2.7
	C658.1,136.5,659.1,135.5,660.2,135.5z"/>
<path class="st0" d="M648.6,149.8h2.1c1.2,0,2.1,0.9,2.1,2.1v2.1c0,1.2-0.9,2.1-2.1,2.1h-2.1c-1.2,0-2.1-0.9-2.1-2.1v-2.1
	C646.5,150.8,647.5,149.8,648.6,149.8z"/>
<path class="st0" d="M698.2,107.4h13c1.2,0,2.1,0.9,2.1,2.1v13c0,1.2-0.9,2.1-2.1,2.1h-13c-1.2,0-2.1-0.9-2.1-2.1v-13
	C696.1,108.4,697,107.4,698.2,107.4z"/>
<path class="st0" d="M703.3,92.6h7.2c1.2,0,2.1,0.9,2.1,2.1v7.2c0,1.2-0.9,2.1-2.1,2.1h-7.2c-1.2,0-2.1-0.9-2.1-2.1v-7.2
	C701.2,93.6,702.1,92.6,703.3,92.6z"/>
<path class="st0" d="M698.2,82.1h3.2c1.2,0,2.1,0.9,2.1,2.1v3.2c0,1.2-0.9,2.1-2.1,2.1h-3.2c-1.2,0-2.1-0.9-2.1-2.1v-3.2
	C696.1,83,697.1,82.1,698.2,82.1z"/>
<path class="st0" d="M706.1,74.7h5.1c1.2,0,2.1,0.9,2.1,2.1v5.1c0,1.2-0.9,2.1-2.1,2.1h-5.1c-1.2,0-2.1-0.9-2.1-2.1v-5.1
	C704,75.6,704.9,74.7,706.1,74.7z"/>
<path class="st0" d="M668,87.9h11c1.2,0,2.1,0.9,2.1,2.1v11c0,1.2-0.9,2.1-2.1,2.1h-11c-1.2,0-2.1-0.9-2.1-2.1V90
	C665.9,88.9,666.9,87.9,668,87.9z"/>
<path class="st0" d="M649.9,91.2h6.2c1.2,0,2.1,0.9,2.1,2.1v6.2c0,1.2-0.9,2.1-2.1,2.1h-6.2c-1.2,0-2.1-0.9-2.1-2.1v-6.2
	C647.8,92.1,648.7,91.2,649.9,91.2z"/>
<path class="st0" d="M674.5,77.5h3.8c1.2,0,2.1,0.9,2.1,2.1v3.8c0,1.2-0.9,2.1-2.1,2.1h-3.8c-1.2,0-2.1-0.9-2.1-2.1v-3.8
	C672.4,78.5,673.3,77.5,674.5,77.5z"/>
<path class="st0" d="M727.9,75.6h6.9c1.2,0,2.1,0.9,2.1,2.1v6.8c0,1.2-0.9,2.1-2.1,2.1h-6.9c-1.2,0-2.1-0.9-2.1-2.1v-6.8
	C725.8,76.5,726.7,75.6,727.9,75.6z"/>
<path class="st0" d="M740,57h12.1c1.2,0,2.1,0.9,2.1,2.1v12.1c0,1.2-0.9,2.1-2.1,2.1H740c-1.2,0-2.1-0.9-2.1-2.1V59.1
	C737.9,57.9,738.8,57,740,57z"/>
<path class="st0" d="M740.8,75.2h4.6c1.2,0,2.1,0.9,2.1,2.1v4.6c0,1.2-0.9,2.1-2.1,2.1h-4.6c-1.2,0-2.1-0.9-2.1-2.1v-4.6
	C738.7,76.1,739.7,75.2,740.8,75.2z"/>
<path class="st0" d="M739.3,116h3.7c1.2,0,2.1,0.9,2.1,2.1v3.7c0,1.2-0.9,2.1-2.1,2.1h-3.7c-1.2,0-2.1-0.9-2.1-2.1v-3.7
	C737.2,116.9,738.1,116,739.3,116z"/>
<path class="st0" d="M674,114.4h4.2c1.2,0,2.1,0.9,2.1,2.1v4.2c0,1.2-0.9,2.1-2.1,2.1H674c-1.2,0-2.1-0.9-2.1-2.1v-4.2
	C671.9,115.4,672.9,114.4,674,114.4z"/>
<path class="st0" d="M649.5,64.6h7.6c1.2,0,2.1,0.9,2.1,2.1v7.5c0,1.2-0.9,2.1-2.1,2.1h-7.6c-1.2,0-2.1-0.9-2.1-2.1v-7.5
	C647.4,65.5,648.3,64.6,649.5,64.6z"/>
<path class="st0" d="M625.4,107.8h6.5c1.2,0,2.1,0.9,2.1,2.1v6.5c0,1.2-0.9,2.1-2.1,2.1h-6.5c-1.2,0-2.1-0.9-2.1-2.1V110
	C623.3,108.8,624.3,107.8,625.4,107.8z"/>
<path class="st0" d="M617.5,87.9h13c1.2,0,2.1,0.9,2.1,2.1v13c0,1.2-0.9,2.1-2.1,2.1h-13c-1.2,0-2.1-0.9-2.1-2.1V90
	C615.4,88.9,616.4,87.9,617.5,87.9z"/>
<path class="st0" d="M619.4,119.9h3c1.2,0,2.1,0.9,2.1,2.1v3c0,1.2-0.9,2.1-2.1,2.1h-3c-1.2,0-2.1-0.9-2.1-2.1v-3
	C617.3,120.8,618.3,119.9,619.4,119.9z"/>
<path class="st0" d="M622,70h9.8c1.2,0,2.1,0.9,2.1,2.1v9.8c0,1.2-0.9,2.1-2.1,2.1H622c-1.2,0-2.1-0.9-2.1-2.1v-9.8
	C619.9,71,620.9,70,622,70z"/>
<path class="st0" d="M616.1,52.9h9.7c1.2,0,2.1,0.9,2.1,2.1v9.7c0,1.2-0.9,2.1-2.1,2.1h-9.7c-1.2,0-2.1-0.9-2.1-2.1V55
	C614,53.8,614.9,52.9,616.1,52.9z"/>
<path class="st0" d="M681.2,57H695c1.2,0,2.1,0.9,2.1,2.1v13.9c0,1.2-0.9,2.1-2.1,2.1h-13.9c-1.2,0-2.1-0.9-2.1-2.1V59.1
	C679,57.9,680,57,681.2,57z"/>
<path class="st0" d="M701.9,37.6h13.2c1.2,0,2.1,0.9,2.1,2.1v13.2c0,1.2-0.9,2.1-2.1,2.1h-13.2c-1.2,0-2.1-0.9-2.1-2.1V39.7
	C699.8,38.5,700.8,37.6,701.9,37.6z"/>
<path class="st0" d="M701.9,59.8h6.8c1.2,0,2.1,0.9,2.1,2.1v6.8c0,1.2-0.9,2.1-2.1,2.1h-6.8c-1.2,0-2.1-0.9-2.1-2.1V62
	C699.8,60.8,700.8,59.8,701.9,59.8z"/>
<path class="st0" d="M659,42.8h15c1.2,0,2.1,0.9,2.1,2.1v15c0,1.2-0.9,2.1-2.1,2.1h-15c-1.2,0-2.1-0.9-2.1-2.1v-15
	C656.9,43.7,657.9,42.8,659,42.8z"/>
<path class="st0" d="M679.5,31.7h8.5c1.2,0,2.1,0.9,2.1,2.1v8.5c0,1.2-0.9,2.1-2.1,2.1h-8.5c-1.2,0-2.1-0.9-2.1-2.1v-8.5
	C677.4,32.6,678.3,31.7,679.5,31.7z"/>
<path class="st0" d="M691.3,46.5h3.8c1.2,0,2.1,0.9,2.1,2.1v3.8c0,1.2-0.9,2.1-2.1,2.1h-3.8c-1.2,0-2.1-0.9-2.1-2.1v-3.8
	C689.2,47.5,690.1,46.5,691.3,46.5z"/>
<path class="st0" d="M633.9,46.9h11.4c1.2,0,2.1,0.9,2.1,2.1v11.4c0,1.2-0.9,2.1-2.1,2.1h-11.4c-1.2,0-2.1-0.9-2.1-2.1V49
	C631.8,47.8,632.7,46.9,633.9,46.9z"/>
<path class="st0" d="M726.6,52.4h4.5c1.2,0,2.1,0.9,2.1,2.1V59c0,1.2-0.9,2.1-2.1,2.1h-4.5c-1.2,0-2.1-0.9-2.1-2.1v-4.5
	C724.5,53.3,725.4,52.4,726.6,52.4z"/>
<path class="st0" d="M649.2,33.8h5.2c1.2,0,2.1,0.9,2.1,2.1v5.2c0,1.2-0.9,2.1-2.1,2.1h-5.2c-1.2,0-2.1-0.9-2.1-2.1v-5.2
	C647.1,34.8,648.1,33.8,649.2,33.8z"/>
<path class="st0" d="M721.6,26.8H741c1.2,0,2.1,0.9,2.1,2.1v19.4c0,1.2-0.9,2.1-2.1,2.1h-19.4c-1.2,0-2.1-0.9-2.1-2.1V28.9
	C719.5,27.7,720.5,26.8,721.6,26.8z"/>
<path class="st0" d="M748.2,41h5.5c1.2,0,2.1,0.9,2.1,2.1v5.5c0,1.2-0.9,2.1-2.1,2.1h-5.5c-1.2,0-2.1-0.9-2.1-2.1v-5.5
	C746,42,747,41,748.2,41z"/>
<path class="st0" d="M708.5,23.9h6.7c1.2,0,2.1,0.9,2.1,2.1v6.7c0,1.2-0.9,2.1-2.1,2.1h-6.7c-1.2,0-2.1-0.9-2.1-2.1V26
	C706.3,24.9,707.3,23.9,708.5,23.9z"/>
<path class="st0" d="M692.6,21.2h5c1.2,0,2.1,0.9,2.1,2.1v4.9c0,1.2-0.9,2.1-2.1,2.1h-5c-1.2,0-2.1-0.9-2.1-2.1v-4.9
	C690.5,22.2,691.4,21.2,692.6,21.2z"/>
<path class="st0" d="M662.4,24.8h10.3c1.2,0,2.1,0.9,2.1,2.1v10.3c0,1.2-0.9,2.1-2.1,2.1h-10.3c-1.2,0-2.1-0.9-2.1-2.1V26.9
	C660.3,25.7,661.3,24.8,662.4,24.8z"/>
<path class="st0" d="M619.4,32.7h9.1c1.2,0,2.1,0.9,2.1,2.1v9.1c0,1.2-0.9,2.1-2.1,2.1h-9.1c-1.2,0-2.1-0.9-2.1-2.1v-9.1
	C617.3,33.6,618.3,32.7,619.4,32.7z"/>
<path class="st0" d="M240.8,243.6l-52-140h11.6l27.2,73.2c7.8,21.2,16.6,44.6,19.6,56.4h0.4c3-10.4,12.6-35,20.4-55.6l28.2-74h11.4
	l-54,140H240.8z"/>
<path class="st0" d="M396.6,193.4c0,27.8-15.4,52.6-45.2,52.6c-27,0-43.8-22.2-43.8-52.4c0-28.6,15.8-52.4,44.8-52.4
	C379,141.2,396.6,162,396.6,193.4z M318.2,193.6c0,23.8,12.8,43,34,43c21.6,0,33.8-17.8,33.8-43c0-23.6-12-43-34.2-43
	C329,150.6,318.2,169.6,318.2,193.6L318.2,193.6z"/>
<path class="st0" d="M421.4,243.6V96.2h10v147.4H421.4z"/>
<path class="st0" d="M539,214.4c0,9.8,0.2,25.4,0.2,29.2h-9.6c-0.5-5.8-0.7-11.6-0.6-17.4c-4.2,11.8-14.4,19.8-32.2,19.8
	c-14.4,0-32.8-5.6-32.8-36.2v-66.2h9.8v63.8c0,14.6,4.6,28.8,24.4,28.8c22.4,0,30.8-12.6,30.8-41.2v-51.4h10L539,214.4z"/>
<path class="st0" d="M571.8,168.8c0-8.8,0-17.2-0.2-25.2h9.8c0.4,3.2,0.6,16.2,0.4,19c4.4-10.2,12.6-21.4,33.2-21.4
	c17.8,0,33.6,10,33.6,37.6v64.8h-10v-63.2c0-17.8-7.4-29.4-24.8-29.4c-23.8,0-32,19.8-32,41.6v51h-10V168.8z"/>
<path class="st0" d="M694,197l0.4,21c0,11.2,2.4,17.6,12,17.6c3.5,0.1,7-0.3,10.4-1.2v8.8c-3.4,1.4-8.2,1.8-12.4,1.8
	c-12.8,0-20-6.4-20-22.4L684,197H694z"/>
<path class="st0" d="M736.8,170.8c0-16.8-0.2-24-0.2-27.2h9.8c0.2,3.2,0.4,9.6,0.4,22.4c5.8-15,18.6-24,34.8-24.8V152
	c-20.8,1.4-34.8,15.8-34.8,39.6v52h-10V170.8z"/>
<path class="st0" d="M802.2,194.8c0.2,25.8,13.2,41.8,32.4,41.8c18.8,0,25.2-10.6,28.8-18.8h10.2c-4.2,13.2-14.8,28.2-39.4,28.2
	c-30.4,0-42.2-26.2-42.2-51.6c0-28.6,14.2-53.2,43.4-53.2c30.8,0,40.6,26.6,40.6,45.4c0,2.8,0,5.6-0.2,8.2H802.2z M865.6,186
	c-0.2-19.8-11-35.4-30.6-35.4c-20.6,0-30,14.4-32.2,35.4H865.6z"/>
<path class="st0" d="M903.6,194.8c0.2,25.8,13.2,41.8,32.4,41.8c18.8,0,25.2-10.6,28.8-18.8H975c-4.2,13.2-14.8,28.2-39.4,28.2
	c-30.4,0-42.2-26.2-42.2-51.6c0-28.6,14.2-53.2,43.4-53.2c30.8,0,40.6,26.6,40.6,45.4c0,2.8,0,5.6-0.2,8.2H903.6z M967,186
	c-0.2-19.8-11-35.4-30.6-35.4c-20.6,0-30,14.4-32.2,35.4H967z"/>
<rect class="st1" width="1200" height="301"/>
</svg>
