<svg xmlns="http://www.w3.org/2000/svg" viewBox="0 0 145 26" width="145" height="26"><defs><clipPath id="a"><path fill="none" d="M3.26 1.02h35.89v24.21H3.26z"></path></clipPath><clipPath id="b"><path fill="none" d="M3.26.54h138.48v24.93H3.26z"></path></clipPath><clipPath id="c"><path d="M9 11.27v13.86a5.51 5.51 0 0 1-2.53-1A7.13 7.13 0 0 1 6 12.64a7.86 7.86 0 0 1 3-1.37z" fill="none" clip-path="url(#a)" clip-rule="evenodd"></path></clipPath><clipPath id="d"><path d="M33.3 10.81v14.35a5.51 5.51 0 0 0 2.53-1A7.83 7.83 0 0 0 39 18a7.26 7.26 0 0 0-2.77-5.73 8.87 8.87 0 0 0-3-1.45z" fill="none" clip-path="url(#a)" clip-rule="evenodd"></path></clipPath><clipPath id="e"><path d="M10.72 25.17h5.77V4.05a5.7 5.7 0 0 0-5.77 3.24v17.88z" fill="none" clip-path="url(#a)" clip-rule="evenodd"></path></clipPath><clipPath id="f"><path d="M18.25 25.12H24V1a7.12 7.12 0 0 0-3.17.66 7.24 7.24 0 0 0-2.59 1.83v21.63z" fill="none" clip-path="url(#a)" clip-rule="evenodd"></path></clipPath><clipPath id="g"><path d="M25.77 25.12h5.77v-19a8.82 8.82 0 0 0-1.4-2.3 7 7 0 0 0-2.09-1.72 6.18 6.18 0 0 0-2.28-.85v23.87z" fill="none" clip-path="url(#a)" clip-rule="evenodd"></path></clipPath><clipPath id="h"><path d="M47 12.63l8-9.5s2.55-2.32 5 1.16c-3.09 3.94-7.58 9.2-7.58 9.2l7.78 9.66a3.13 3.13 0 0 1-1.74 1.72 3.59 3.59 0 0 1-3.38-.44l-3.34-4L47 14.66v8.73s.11 1.74-2.51 1.74-2.58-1.32-2.58-2V3.87s.18-1.61 2.51-1.61S47 3.76 47 3.76V12.63z" fill="none" clip-path="url(#b)" clip-rule="evenodd"></path></clipPath><clipPath id="i"><path d="M63.83 7.79c.46 0 2.57-.21 2.57 1.75v13.9s0 1.71-2.34 1.69c-2.58 0-2.63-1.48-2.62-1.82s0-13.72 0-13.77 0-1.75 2.38-1.75z" fill="none" clip-path="url(#b)" clip-rule="evenodd"></path></clipPath><clipPath id="j"><path d="M63.94 6.35a2.61 2.61 0 1 0-2.61-2.6 2.6 2.6 0 0 0 2.61 2.6z" fill="none" clip-path="url(#b)" clip-rule="evenodd"></path></clipPath><clipPath id="k"><path d="M68.25 8.32a3.17 3.17 0 0 1 1.92-.55A2.75 2.75 0 0 1 73 10.46c1.34-1.46 2.51-2.93 5.55-2.93a6 6 0 0 1 6.29 6.32v9.39s.21 1.87-2.33 1.87S79.9 24 79.9 22.94v-8a2.92 2.92 0 0 0-3-3.09c-3.13 0-3.68 2.23-3.68 2.14v9.33s0 1.85-2.57 1.82-2.38-1.85-2.38-1.85" fill="none" clip-path="url(#b)" clip-rule="evenodd"></path></clipPath><clipPath id="l"><path d="M99.17 1.3s.42-.56 1.93-.56a3 3 0 0 1 3 3.13v19.51s.12 1.75-2.4 1.75-2.52-1.42-2.52-2v-.69s-1.19 3-5.38 3-7.89-2.92-7.89-9.21 4.64-8.64 7.92-8.64A6.56 6.56 0 0 1 99.1 10c0 .21.07-8.65.07-8.65zM95 11.58a4.08 4.08 0 0 1 4.11 2.55c.07 3.15 0 4 0 4A4 4 0 0 1 95 21.48c-3.76 0-4.24-3.62-4.24-5s.65-4.87 4.26-4.88z" fill="none" clip-path="url(#b)" clip-rule="evenodd"></path></clipPath><clipPath id="m"><path d="M108.45 11.86v11.3s-.08 2 2.53 2 2.45-1.79 2.45-2.08V11.87h2.23a1.73 1.73 0 0 0 1.77-1.93 1.76 1.76 0 0 0-1.71-2h-2.48V6.72s-.08-2.35 2-2.3a3.56 3.56 0 0 1 2.35 1 3 3 0 0 0 1.07-2.17c0-.76-.71-2.68-4.33-2.68s-5.83 2.23-5.85 6v1.38h-2s-1.45 0-1.45 2 1.35 1.86 1.35 1.86z" fill="none" clip-path="url(#b)" clip-rule="evenodd"></path></clipPath><clipPath id="n"><path d="M123.3 9.9v8.32a3.37 3.37 0 0 0 6.69 0V9.47s.15-1.73 2.42-1.73 2.43 1.7 2.43 1.75v15.13s-.37.51-1.76.51a2.67 2.67 0 0 1-2.68-1.67 4.25 4.25 0 0 1-.32-.77s-2.19 2.7-4.7 2.7h-2.12a6.05 6.05 0 0 1-2.37-1 6.47 6.47 0 0 1-2.48-5.06V9.85a2.25 2.25 0 0 1 2.48-2.08 2.2 2.2 0 0 1 2.41 2.13z" fill="none" clip-path="url(#b)" clip-rule="evenodd"></path></clipPath><clipPath id="o"><path d="M136.78 1.3v22.14s.13 1.68 2.45 1.68 2.49-1.71 2.49-1.71V4s-.17-3.2-3.18-3.2a2.87 2.87 0 0 0-1.76.5z" fill="none" clip-path="url(#b)" clip-rule="evenodd"></path></clipPath></defs><g clip-path="url(#c)"><path fill="#6da5ba" d="M2.81 10.8h6.61v14.79H2.81z"></path></g><g clip-path="url(#d)"><path fill="#a2d170" d="M32.83 10.34h6.67v15.28h-6.67z"></path></g><g clip-path="url(#e)"><path fill="#da695e" d="M10.26 3.55h6.7v22.08h-6.7z"></path></g><g clip-path="url(#f)"><path fill="#6bcba8" d="M17.79.55h6.68v25.03h-6.68z"></path></g><g clip-path="url(#g)"><path fill="#407583" d="M25.3.78H32v24.8h-6.7z"></path></g><g clip-path="url(#h)"><path fill="#3c3c3c" d="M41.46 1.8H60.7v23.8H41.46z"></path></g><g clip-path="url(#i)"><path fill="#3c3c3c" d="M60.97 7.32h5.88V25.6h-5.88z"></path></g><g clip-path="url(#j)"><path fill="#3c3c3c" d="M60.87.68h6.15v6.13h-6.15z"></path></g><g clip-path="url(#k)"><path fill="#3c3c3c" d="M67.78 7.06h17.53v18.51H67.78z"></path></g><g clip-path="url(#l)"><path fill="#3c3c3c" d="M85.45.27h19.11v25.57H85.45z"></path></g><g clip-path="url(#m)"><path fill="#3c3c3c" d="M104.65.08h14.5v25.51h-14.5z"></path></g><g clip-path="url(#n)"><path fill="#3c3c3c" d="M117.95 7.27h17.36v18.58h-17.36z"></path></g><g clip-path="url(#o)"><path fill="#3c3c3c" d="M136.32.34h5.87v25.24h-5.87z"></path></g></svg>