<svg id="Layer_1" data-name="Layer 1" xmlns="http://www.w3.org/2000/svg" viewBox="0 0 1200 301"><defs><style>.cls-1{fill:#4f4236;}.cls-2{fill:#b0c334;}.cls-3{fill:none;}</style></defs><title>logo-w-fixed</title><path class="cls-1" d="M723.5,129.64V93.18h20.79a2.64,2.64,0,0,0,0-5.27H723.5V64.37a4,4,0,1,0-7.91,0v61.31H694.33V83a5.27,5.27,0,1,0-10.54,0v21.51H645V85.65H665A2.64,2.64,0,0,0,667.67,83V68.67a2.64,2.64,0,0,0-5.28,0V80.38H645V72.62a4,4,0,1,0-7.91,0v35.86a4,4,0,0,0,4,4h42.79v30.35H655.47V124.62a2.64,2.64,0,1,0-5.27,0v20.8a2.64,2.64,0,0,0,2.64,2.63h30.95L684,196.5h10l.33-62.91h25.21A4,4,0,0,0,723.5,129.64Z" transform="translate(0 0.5)"/><rect class="cls-2" x="656.54" y="120.91" width="13.18" height="13.18" rx="2.11" ry="2.11"/><rect class="cls-2" x="672.36" y="130.14" width="7.99" height="7.99" rx="2.11" ry="2.11"/><rect class="cls-2" x="634.05" y="120.91" width="14.61" height="14.61" rx="2.11" ry="2.11"/><rect class="cls-2" x="639.67" y="137.43" width="8.98" height="8.98" rx="2.11" ry="2.11"/><rect class="cls-2" x="697.13" y="138.13" width="14.94" height="14.94" rx="2.11" ry="2.11"/><rect class="cls-2" x="727.01" y="122.21" width="9.84" height="9.84" rx="2.11" ry="2.11"/><rect class="cls-2" x="715.59" y="136.37" width="10.19" height="10.19" rx="2.11" ry="2.11"/><rect class="cls-2" x="728.59" y="134.13" width="15.7" height="15.7" rx="2.11" ry="2.11"/><rect class="cls-2" x="727.01" y="96.84" width="16.17" height="16.17" rx="2.11" ry="2.11"/><rect class="cls-2" x="745.11" y="95.43" width="9.49" height="9.49" rx="2.11" ry="2.11"/><rect class="cls-2" x="750.09" y="82.95" width="8.2" height="8.2" rx="2.11" ry="2.11"/><rect class="cls-2" x="658.12" y="135.52" width="6.91" height="6.91" rx="2.11" ry="2.11"/><rect class="cls-2" x="646.53" y="149.83" width="6.31" height="6.31" rx="2.11" ry="2.11"/><rect class="cls-2" x="696.08" y="107.45" width="17.22" height="17.22" rx="2.11" ry="2.11"/><rect class="cls-2" x="701.18" y="92.62" width="11.42" height="11.42" rx="2.11" ry="2.11"/><rect class="cls-2" x="696.12" y="82.07" width="7.38" height="7.38" rx="2.11" ry="2.11"/><rect class="cls-2" x="703.99" y="74.69" width="9.31" height="9.31" rx="2.11" ry="2.11"/><rect class="cls-2" x="665.94" y="87.93" width="15.2" height="15.2" rx="2.11" ry="2.11"/><rect class="cls-2" x="647.76" y="91.16" width="10.37" height="10.37" rx="2.11" ry="2.11"/><rect class="cls-2" x="672.36" y="77.51" width="7.99" height="7.99" rx="2.11" ry="2.11"/><rect class="cls-2" x="725.78" y="75.58" width="11.07" height="11.07" rx="2.11" ry="2.11"/><rect class="cls-2" x="737.9" y="56.95" width="16.28" height="16.28" rx="2.11" ry="2.11"/><rect class="cls-2" x="738.72" y="75.19" width="8.82" height="8.82" rx="2.11" ry="2.11"/><rect class="cls-2" x="737.2" y="115.99" width="7.91" height="7.91" rx="2.11" ry="2.11"/><rect class="cls-2" x="671.92" y="114.41" width="8.44" height="8.44" rx="2.11" ry="2.11"/><rect class="cls-2" x="647.4" y="64.57" width="11.77" height="11.77" rx="2.11" ry="2.11"/><rect class="cls-2" x="623.33" y="107.85" width="10.72" height="10.72" rx="2.11" ry="2.11"/><rect class="cls-2" x="615.44" y="87.93" width="17.2" height="17.2" rx="2.11" ry="2.11"/><rect class="cls-2" x="617.32" y="119.87" width="7.26" height="7.26" rx="2.11" ry="2.11"/><rect class="cls-2" x="619.91" y="70.01" width="14" height="14" rx="2.11" ry="2.11"/><rect class="cls-2" x="614" y="52.9" width="13.9" height="13.9" rx="2.11" ry="2.11"/><rect class="cls-2" x="679.05" y="56.95" width="18.08" height="18.08" rx="2.11" ry="2.11"/><rect class="cls-2" x="699.81" y="37.58" width="17.44" height="17.44" rx="2.11" ry="2.11"/><rect class="cls-2" x="699.81" y="59.85" width="11.05" height="11.05" rx="2.11" ry="2.11"/><rect class="cls-2" x="656.91" y="42.76" width="19.23" height="19.23" rx="2.11" ry="2.11"/><rect class="cls-2" x="677.36" y="31.69" width="12.72" height="12.72" rx="2.11" ry="2.11"/><rect class="cls-2" x="689.15" y="46.53" width="7.98" height="7.99" rx="2.11" ry="2.11"/><rect class="cls-2" x="631.78" y="46.88" width="15.62" height="15.62" rx="2.11" ry="2.11"/><rect class="cls-2" x="724.45" y="52.38" width="8.76" height="8.76" rx="2.11" ry="2.11"/><rect class="cls-2" x="647.12" y="33.81" width="9.42" height="9.42" rx="2.11" ry="2.11"/><rect class="cls-2" x="719.54" y="26.76" width="23.6" height="23.6" rx="2.11" ry="2.11"/><rect class="cls-2" x="746.05" y="41.01" width="9.7" height="9.7" rx="2.11" ry="2.11"/><rect class="cls-2" x="706.35" y="23.92" width="10.9" height="10.9" rx="2.11" ry="2.11"/><rect class="cls-2" x="690.47" y="21.21" width="9.17" height="9.17" rx="2.11" ry="2.11"/><rect class="cls-2" x="660.32" y="24.76" width="14.56" height="14.56" rx="2.11" ry="2.11"/><rect class="cls-2" x="617.32" y="32.66" width="13.32" height="13.32" rx="2.11" ry="2.11"/><path class="cls-1" d="M240.8,243.13l-52-140h11.6l27.2,73.2c7.8,21.2,16.6,44.6,19.6,56.4h.4c3-10.4,12.6-35,20.4-55.6l28.2-74h11.4l-54,140Z" transform="translate(0 0.5)"/><path class="cls-1" d="M396.6,192.93c0,27.8-15.4,52.6-45.2,52.6-27,0-43.8-22.2-43.8-52.4,0-28.6,15.8-52.4,44.8-52.4C379,140.73,396.6,161.53,396.6,192.93Zm-78.4.2c0,23.8,12.8,43,34,43,21.6,0,33.8-17.8,33.8-43,0-23.6-12-43-34.2-43C329,150.13,318.2,169.13,318.2,193.13Z" transform="translate(0 0.5)"/><path class="cls-1" d="M421.4,243.13V95.73h10v147.4Z" transform="translate(0 0.5)"/><path class="cls-1" d="M539,213.93c0,9.8.2,25.4.2,29.2h-9.6a160.72,160.72,0,0,1-.6-17.4c-4.2,11.8-14.4,19.8-32.2,19.8-14.4,0-32.8-5.6-32.8-36.2v-66.2h9.8v63.8c0,14.6,4.6,28.8,24.4,28.8,22.4,0,30.8-12.6,30.8-41.2v-51.4h10Z" transform="translate(0 0.5)"/><path class="cls-1" d="M571.79,168.33c0-8.8,0-17.2-.2-25.2h9.8c.4,3.2.6,16.2.4,19,4.4-10.2,12.6-21.4,33.2-21.4,17.8,0,33.6,10,33.6,37.6v64.8h-10v-63.2c0-17.8-7.4-29.4-24.8-29.4-23.8,0-32,19.8-32,41.6v51h-10Z" transform="translate(0 0.5)"/><path class="cls-1" d="M694,196.5l.39,21c0,11.2,2.4,17.6,12,17.6a37.81,37.81,0,0,0,10.4-1.2v8.8c-3.4,1.4-8.2,1.8-12.4,1.8-12.8,0-20-6.4-20-22.4L684,196.5Z" transform="translate(0 0.5)"/><path class="cls-1" d="M736.79,170.33c0-16.8-.2-24-.2-27.2h9.8c.2,3.2.4,9.6.4,22.4,5.8-15,18.6-24,34.8-24.8v10.8c-20.8,1.4-34.8,15.8-34.8,39.6v52h-10Z" transform="translate(0 0.5)"/><path class="cls-1" d="M802.19,194.33c.2,25.8,13.2,41.8,32.4,41.8,18.8,0,25.2-10.6,28.8-18.8h10.2c-4.2,13.2-14.8,28.2-39.4,28.2-30.4,0-42.2-26.2-42.2-51.6,0-28.6,14.2-53.2,43.4-53.2,30.8,0,40.6,26.6,40.6,45.4,0,2.8,0,5.6-.2,8.2Zm63.4-8.8c-.2-19.8-11-35.4-30.6-35.4-20.6,0-30,14.4-32.2,35.4Z" transform="translate(0 0.5)"/><path class="cls-1" d="M903.59,194.33c.2,25.8,13.2,41.8,32.4,41.8,18.8,0,25.2-10.6,28.8-18.8H975c-4.2,13.2-14.8,28.2-39.4,28.2-30.4,0-42.2-26.2-42.2-51.6,0-28.6,14.2-53.2,43.4-53.2,30.8,0,40.6,26.6,40.6,45.4,0,2.8,0,5.6-.2,8.2Zm63.4-8.8c-.2-19.8-11-35.4-30.6-35.4-20.6,0-30,14.4-32.2,35.4Z" transform="translate(0 0.5)"/><rect class="cls-3" width="1200" height="301"/></svg>