<svg id="Layer_1" data-name="Layer 1" xmlns="http://www.w3.org/2000/svg" viewBox="0 0 201.81 245.88"><defs><style>.cls-1{fill:#4f4236;}.cls-2{fill:#b0c334;}</style></defs><title>logo-sq</title><path class="cls-1" d="M173.13,162.48v-51h29.08a3.69,3.69,0,1,0,0-7.37H173.13V71.19a5.53,5.53,0,0,0-11.06,0V157H132.34V97.27a7.38,7.38,0,0,0-14.75,0v30.09H63.28V101H91.36a3.69,3.69,0,0,0,3.69-3.69V77.21a3.69,3.69,0,0,0-7.38,0V93.59H63.28V82.73a5.53,5.53,0,0,0-11.06,0v50.16a5.54,5.54,0,0,0,5.53,5.53h59.84v42.45H78V155.46a3.69,3.69,0,1,0-7.37,0v29.09a3.69,3.69,0,0,0,3.69,3.69h43.28V256h14.75V168H167.6A5.52,5.52,0,0,0,173.13,162.48Z" transform="translate(-19.98 -10.12)"/><rect class="cls-2" x="59.5" y="139.45" width="18.43" height="18.43" rx="2.95" ry="2.95"/><rect class="cls-2" x="81.62" y="152.36" width="11.18" height="11.18" rx="2.95" ry="2.95"/><rect class="cls-2" x="28.04" y="139.45" width="20.43" height="20.43" rx="2.95" ry="2.95"/><rect class="cls-2" x="35.91" y="162.55" width="12.57" height="12.57" rx="2.95" ry="2.95"/><rect class="cls-2" x="116.28" y="163.54" width="20.89" height="20.89" rx="2.95" ry="2.95"/><rect class="cls-2" x="158.06" y="141.27" width="13.76" height="13.76" rx="2.95" ry="2.95"/><rect class="cls-2" x="142.09" y="161.08" width="14.26" height="14.26" rx="2.95" ry="2.95"/><rect class="cls-2" x="160.27" y="157.95" width="21.96" height="21.96" rx="2.95" ry="2.95"/><rect class="cls-2" x="158.06" y="105.78" width="22.61" height="22.61" rx="2.95" ry="2.95"/><rect class="cls-2" x="183.38" y="103.81" width="13.27" height="13.27" rx="2.95" ry="2.95"/><rect class="cls-2" x="190.34" y="86.36" width="11.47" height="11.47" rx="2.95" ry="2.95"/><rect class="cls-2" x="61.71" y="159.88" width="9.66" height="9.66" rx="2.95" ry="2.95"/><rect class="cls-2" x="45.49" y="179.9" width="8.83" height="8.83" rx="2.95" ry="2.95"/><rect class="cls-2" x="114.8" y="120.62" width="24.09" height="24.09" rx="2.95" ry="2.95"/><rect class="cls-2" x="121.93" y="99.88" width="15.98" height="15.98" rx="2.95" ry="2.95"/><rect class="cls-2" x="114.86" y="85.13" width="10.32" height="10.32" rx="2.95" ry="2.95"/><rect class="cls-2" x="125.86" y="74.81" width="13.03" height="13.03" rx="2.95" ry="2.95"/><rect class="cls-2" x="72.65" y="93.33" width="21.26" height="21.26" rx="2.95" ry="2.95"/><rect class="cls-2" x="47.21" y="97.83" width="14.5" height="14.5" rx="2.95" ry="2.95"/><rect class="cls-2" x="81.62" y="78.74" width="11.18" height="11.18" rx="2.95" ry="2.95"/><rect class="cls-2" x="156.34" y="76.04" width="15.48" height="15.48" rx="2.95" ry="2.95"/><rect class="cls-2" x="173.3" y="49.99" width="22.77" height="22.77" rx="2.95" ry="2.95"/><rect class="cls-2" x="174.45" y="75.5" width="12.34" height="12.34" rx="2.95" ry="2.95"/><rect class="cls-2" x="172.32" y="132.57" width="11.06" height="11.06" rx="2.95" ry="2.95"/><rect class="cls-2" x="81.01" y="130.36" width="11.8" height="11.8" rx="2.95" ry="2.95"/><rect class="cls-2" x="46.71" y="60.65" width="16.47" height="16.47" rx="2.95" ry="2.95"/><rect class="cls-2" x="13.05" y="121.18" width="14.99" height="14.99" rx="2.95" ry="2.95"/><rect class="cls-2" x="2.01" y="93.33" width="24.05" height="24.05" rx="2.95" ry="2.95"/><rect class="cls-2" x="4.64" y="137.99" width="10.16" height="10.16" rx="2.95" ry="2.95"/><rect class="cls-2" x="8.27" y="68.26" width="19.58" height="19.58" rx="2.95" ry="2.95"/><rect class="cls-2" y="44.32" width="19.44" height="19.44" rx="2.95" ry="2.95"/><rect class="cls-2" x="90.99" y="49.99" width="25.29" height="25.29" rx="2.95" ry="2.95"/><rect class="cls-2" x="120.02" y="22.9" width="24.39" height="24.39" rx="2.95" ry="2.95"/><rect class="cls-2" x="120.02" y="54.04" width="15.46" height="15.46" rx="2.95" ry="2.95"/><rect class="cls-2" x="60.01" y="30.15" width="26.89" height="26.89" rx="2.95" ry="2.95"/><rect class="cls-2" x="88.63" y="14.66" width="17.8" height="17.8" rx="2.95" ry="2.95"/><rect class="cls-2" x="105.11" y="35.42" width="11.17" height="11.17" rx="2.95" ry="2.95"/><rect class="cls-2" x="24.86" y="35.9" width="21.85" height="21.85" rx="2.95" ry="2.95"/><rect class="cls-2" x="154.48" y="43.6" width="12.26" height="12.26" rx="2.95" ry="2.95"/><rect class="cls-2" x="46.32" y="17.63" width="13.18" height="13.18" rx="2.95" ry="2.95"/><rect class="cls-2" x="147.61" y="7.77" width="33" height="33" rx="2.95" ry="2.95"/><rect class="cls-2" x="184.69" y="27.7" width="13.57" height="13.57" rx="2.95" ry="2.95"/><rect class="cls-2" x="129.17" y="3.8" width="15.24" height="15.24" rx="2.95" ry="2.95"/><rect class="cls-2" x="106.95" width="12.83" height="12.83" rx="2.95" ry="2.95"/><rect class="cls-2" x="64.78" y="4.96" width="20.36" height="20.36" rx="2.95" ry="2.95"/><rect class="cls-2" x="4.64" y="16.01" width="18.63" height="18.63" rx="2.95" ry="2.95"/></svg>