<svg id="Layer_1" data-name="Layer 1" xmlns="http://www.w3.org/2000/svg" viewBox="0 0 1161.02 269.27"><defs><style>.cls-1,.cls-3{fill:#4f4236;}.cls-2{fill:#b0c334;}.cls-3{font-size:173.86px;font-family:Krungthep, Krungthep;}</style></defs><title>voluntree-color</title><path class="cls-1" d="M184.71,187.48V131.64h31.84a4,4,0,0,0,0-8.08H184.71V87.5a6.06,6.06,0,1,0-12.12,0v93.92H140V116.07a8.08,8.08,0,1,0-16.15,0V149H64.4V120.1H95.15a4,4,0,0,0,4-4v-22a4,4,0,1,0-8.08,0V112H64.4v-11.9a6.06,6.06,0,0,0-12.11,0v54.94a6.05,6.05,0,0,0,6.06,6.05h65.53v46.49H80.51V179.79a4,4,0,1,0-8.07,0v31.86a4,4,0,0,0,4,4h47.41V289.9H140V193.53h38.62A6.05,6.05,0,0,0,184.71,187.48Z" transform="translate(-16.98 -20.62)"/><rect class="cls-2" x="65.16" y="152.72" width="20.19" height="20.19" rx="3.23" ry="3.23"/><rect class="cls-2" x="89.39" y="166.85" width="12.24" height="12.25" rx="3.23" ry="3.23"/><rect class="cls-2" x="30.71" y="152.72" width="22.38" height="22.38" rx="3.23" ry="3.23"/><rect class="cls-2" x="39.32" y="178.02" width="13.76" height="13.76" rx="3.23" ry="3.23"/><rect class="cls-2" x="127.34" y="179.1" width="22.88" height="22.88" rx="3.23" ry="3.23"/><rect class="cls-2" x="173.1" y="154.71" width="15.07" height="15.07" rx="3.23" ry="3.23"/><rect class="cls-2" x="155.61" y="176.41" width="15.61" height="15.61" rx="3.23" ry="3.23"/><rect class="cls-2" x="175.52" y="172.98" width="24.05" height="24.04" rx="3.23" ry="3.23"/><rect class="cls-2" x="173.1" y="115.84" width="24.76" height="24.76" rx="3.23" ry="3.23"/><rect class="cls-2" x="200.83" y="113.69" width="14.54" height="14.54" rx="3.23" ry="3.23"/><rect class="cls-2" x="208.45" y="94.58" width="12.56" height="12.56" rx="3.23" ry="3.23"/><rect class="cls-2" x="67.59" y="175.1" width="10.58" height="10.58" rx="3.23" ry="3.23"/><rect class="cls-2" x="49.82" y="197.02" width="9.67" height="9.67" rx="3.23" ry="3.23"/><rect class="cls-2" x="125.73" y="132.1" width="26.38" height="26.38" rx="3.23" ry="3.23"/><rect class="cls-2" x="133.53" y="109.38" width="17.5" height="17.5" rx="3.23" ry="3.23"/><rect class="cls-2" x="125.79" y="93.23" width="11.31" height="11.31" rx="3.23" ry="3.23"/><rect class="cls-2" x="137.84" y="81.93" width="14.27" height="14.27" rx="3.23" ry="3.23"/><rect class="cls-2" x="79.56" y="102.21" width="23.29" height="23.29" rx="3.23" ry="3.23"/><rect class="cls-2" x="51.71" y="107.14" width="15.88" height="15.88" rx="3.23" ry="3.23"/><rect class="cls-2" x="89.39" y="86.23" width="12.24" height="12.24" rx="3.23" ry="3.23"/><rect class="cls-2" x="171.22" y="83.28" width="16.96" height="16.96" rx="3.23" ry="3.23"/><rect class="cls-2" x="189.79" y="54.74" width="24.94" height="24.94" rx="3.23" ry="3.23"/><rect class="cls-2" x="191.05" y="82.68" width="13.51" height="13.51" rx="3.23" ry="3.23"/><rect class="cls-2" x="188.71" y="145.18" width="12.11" height="12.11" rx="3.23" ry="3.23"/><rect class="cls-2" x="88.71" y="142.76" width="12.92" height="12.92" rx="3.23" ry="3.23"/><rect class="cls-2" x="51.16" y="66.42" width="18.03" height="18.03" rx="3.23" ry="3.23"/><rect class="cls-2" x="14.29" y="132.71" width="16.42" height="16.42" rx="3.23" ry="3.23"/><rect class="cls-2" x="2.2" y="102.21" width="26.34" height="26.34" rx="3.23" ry="3.23"/><rect class="cls-2" x="5.09" y="151.12" width="11.12" height="11.12" rx="3.23" ry="3.23"/><rect class="cls-2" x="9.06" y="74.75" width="21.44" height="21.44" rx="3.23" ry="3.23"/><rect class="cls-2" y="48.54" width="21.29" height="21.29" rx="3.23" ry="3.23"/><rect class="cls-2" x="99.65" y="54.74" width="27.69" height="27.69" rx="3.23" ry="3.23"/><rect class="cls-2" x="131.44" y="25.08" width="26.71" height="26.71" rx="3.23" ry="3.23"/><rect class="cls-2" x="131.44" y="59.18" width="16.93" height="16.93" rx="3.23" ry="3.23"/><rect class="cls-2" x="65.72" y="33.02" width="29.45" height="29.45" rx="3.23" ry="3.23"/><rect class="cls-2" x="97.06" y="16.06" width="19.49" height="19.49" rx="3.23" ry="3.23"/><rect class="cls-2" x="115.11" y="38.79" width="12.23" height="12.23" rx="3.23" ry="3.23"/><rect class="cls-2" x="27.23" y="39.32" width="23.93" height="23.93" rx="3.23" ry="3.23"/><rect class="cls-2" x="169.18" y="47.74" width="13.42" height="13.43" rx="3.23" ry="3.23"/><rect class="cls-2" x="50.73" y="19.3" width="14.44" height="14.44" rx="3.23" ry="3.23"/><rect class="cls-2" x="161.66" y="8.51" width="36.14" height="36.15" rx="3.23" ry="3.23"/><rect class="cls-2" x="202.26" y="30.33" width="14.86" height="14.86" rx="3.23" ry="3.23"/><rect class="cls-2" x="141.46" y="4.16" width="16.69" height="16.69" rx="3.23" ry="3.23"/><rect class="cls-2" x="117.13" width="14.05" height="14.05" rx="3.23" ry="3.23"/><rect class="cls-2" x="70.94" y="5.44" width="22.3" height="22.3" rx="3.23" ry="3.23"/><rect class="cls-2" x="5.09" y="17.54" width="20.4" height="20.4" rx="3.23" ry="3.23"/><text class="cls-3" transform="translate(234.02 197.5)">Voluntree</text></svg>